<svg width="0" height="0" class="hidden">
    <symbol fill="none" xmlns="http://www.w3.org/2000/svg" viewBox="0 0 70 70" id="cart">
        <path d="M35 69.1797C53.8769 69.1797 69.1797 53.8769 69.1797 35C69.1797 16.1231 53.8769 0.820312 35 0.820312C16.1231 0.820312 0.820312 16.1231 0.820312 35C0.820312 53.8769 16.1231 69.1797 35 69.1797Z" fill="#ECAF7B"></path>
        <path d="M41.5608 51.5428C42.2492 51.5428 42.8072 50.9847 42.8072 50.2964C42.8072 49.608 42.2492 49.05 41.5608 49.05C40.8725 49.05 40.3144 49.608 40.3144 50.2964C40.3144 50.9847 40.8725 51.5428 41.5608 51.5428Z" fill="white"></path>
        <path d="M31.3464 51.5428C32.0348 51.5428 32.5928 50.9847 32.5928 50.2964C32.5928 49.608 32.0348 49.05 31.3464 49.05C30.658 49.05 30.1 49.608 30.1 50.2964C30.1 50.9847 30.658 51.5428 31.3464 51.5428Z" fill="white"></path>
        <path d="M41.5608 47.3476C39.9496 47.3476 38.6424 48.67 38.6424 50.2812C38.6424 51.9076 39.9496 53.2148 41.5608 53.2148C43.172 53.2148 44.4792 51.8924 44.4792 50.2812C44.4944 48.67 43.1872 47.3476 41.5608 47.3476ZM41.5608 51.5428C40.8768 51.5428 40.3144 50.9804 40.3144 50.2964C40.3144 49.5972 40.8768 49.05 41.5608 49.05C42.26 49.05 42.8072 49.6124 42.8072 50.2964C42.8072 50.9804 42.26 51.5428 41.5608 51.5428Z" fill="white"></path>
        <path d="M31.3464 47.3476C29.7352 47.3476 28.428 48.67 28.428 50.2812C28.428 51.9076 29.7352 53.2148 31.3464 53.2148C32.9576 53.2148 34.2648 51.8924 34.2648 50.2812C34.2648 48.67 32.9576 47.3476 31.3464 47.3476ZM31.3464 51.5428C30.6624 51.5428 30.1 50.9804 30.1 50.2964C30.1 49.5972 30.6624 49.05 31.3464 49.05C32.0304 49.05 32.5928 49.6124 32.5928 50.2964C32.5928 50.9804 32.0304 51.5428 31.3464 51.5428Z" fill="white"></path>
        <path d="M24.6128 28.1652L22.6216 22.0092L22.5456 22.0396V21.918H13V24.8516H20.4328L22.7128 31.0076L27.6224 45.8124H45.1632L51 28.0892L24.6128 28.1652Z" fill="white"></path>
    </symbol>
    <symbol fill="none" xmlns="http://www.w3.org/2000/svg" viewBox="0 0 70 70" id="home">
        <path d="M35 69.65C54.1367 69.65 69.65 54.1367 69.65 35C69.65 15.8633 54.1367 0.350006 35 0.350006C15.8633 0.350006 0.350006 15.8633 0.350006 35C0.350006 54.1367 15.8633 69.65 35 69.65Z" fill="#ECAF7B"></path>
        <path d="M25.2506 38.8034C25.2574 38.8101 25.2628 38.817 25.2696 38.8237C25.2628 38.8276 25.2574 38.8304 25.2506 38.8345C25.2439 38.8276 25.2384 38.8209 25.2316 38.8141C25.2384 38.8116 25.2439 38.8075 25.2506 38.8034Z" fill="white"></path>
        <path d="M44.7724 38.8089C44.7657 38.8169 44.7575 38.8265 44.7494 38.8346C44.7414 38.8291 44.7331 38.825 44.7251 38.821C44.7331 38.813 44.7414 38.8034 44.7494 38.7953C44.7575 38.7993 44.7643 38.8048 44.7724 38.8089Z" fill="white"></path>
        <path d="M46.2662 50.3232H23.7338C22.8264 50.3232 22.0909 49.5876 22.0909 48.6802V32.1788H47.909V48.6802C47.9091 49.5876 47.1734 50.3232 46.2662 50.3232Z" fill="white"></path>
        <path d="M51.1905 34.5278C51.8759 35.2132 51.3859 36.3847 50.4167 36.3782L35.1214 36.2747L19.776 36.1709C18.8139 36.1643 18.3366 35.0009 19.0169 34.3206L34.2336 19.1037C34.6568 18.6805 35.3432 18.6805 35.7664 19.1037L51.1905 34.5278Z" fill="white"></path>
        <path d="M37.5655 38.582H32.4345C31.1598 38.582 30.1267 39.6152 30.1267 40.8898V50.3858H39.8732V40.8898C39.8733 39.6152 38.84 38.582 37.5655 38.582Z" fill="#ECAF7B"></path>
    </symbol>
    <symbol fill="none" xmlns="http://www.w3.org/2000/svg" viewBox="0 0 40 40" id="arrow">
        <path d="M29.1014 18.0782L14.1008 5.57763C13.5908 5.15581 12.9345 4.95327 12.2756 5.01434C11.6166 5.07542 11.0087 5.39514 10.5849 5.90349C10.1612 6.41184 9.95619 7.06739 10.0148 7.72659C10.0734 8.38578 10.3908 8.9949 10.8975 9.42054L23.5934 19.9997L10.8975 30.5789C10.3888 31.0039 10.0697 31.6135 10.0101 32.2738C9.95058 32.934 10.1555 33.5909 10.58 34.1001C11.0044 34.6093 11.6136 34.9292 12.2738 34.9895C12.934 35.0498 13.5911 34.8457 14.1008 34.4218L29.1014 21.9211C29.3827 21.6861 29.6089 21.3922 29.7642 21.0602C29.9195 20.7282 29.9999 20.3661 29.9999 19.9996C29.9999 19.6331 29.9195 19.2711 29.7642 18.939C29.6089 18.607 29.3827 18.3132 29.1014 18.0782Z" fill="#ECAF7B"></path>
    </symbol>
    <symbol fill="none" xmlns="http://www.w3.org/2000/svg" viewBox="0 0 35 35" id="price">
        <path d="M17.5 4.99634C10.605 4.99634 4.99634 10.6058 4.99634 17.5004C4.99634 24.3951 10.605 30.0037 17.5 30.0037C24.3947 30.0037 30.0037 24.3951 30.0037 17.5004C30.0037 10.6058 24.3947 4.99634 17.5 4.99634ZM17.5 28.0314C11.6928 28.0314 6.96857 23.3072 6.96857 17.5004C6.96857 11.6928 11.6928 6.96857 17.5 6.96857C23.3072 6.96857 28.0315 11.6928 28.0315 17.5004C28.0315 23.3072 23.3072 28.0314 17.5 28.0314Z" fill="#8C5120"></path>
        <path d="M15.5228 15.0498C15.5228 14.2587 16.6797 14.1236 17.6833 14.1236C18.6292 14.1236 19.9217 14.5669 21.0024 15.1272L21.2142 12.9469C20.6737 12.6379 19.4199 12.2712 18.1464 12.1946L18.455 9.97559H16.3905L16.6996 12.1946C14.0372 12.4451 13.1687 13.9885 13.1687 15.2813C13.1687 18.5418 19.2457 17.848 19.2457 19.8537C19.2457 20.6068 18.5325 20.8763 17.278 20.8763C15.5805 20.8763 14.3066 20.2788 13.6511 19.6609L13.3228 22.1115C13.9408 22.4782 15.1942 22.8061 16.6996 22.8835L16.3905 25.0252H18.455L18.1464 22.8639C21.2719 22.5936 21.8314 20.9341 21.8314 19.8348C21.8314 15.957 15.5228 16.9211 15.5228 15.0498Z" fill="#8C5120"></path>
    </symbol>
    <symbol fill="none" xmlns="http://www.w3.org/2000/svg" viewBox="0 0 55 35" id="addToCart">
        <rect width="55" height="35" rx="5" fill="#ECAF7B"></rect>
        <path d="M33.5481 29.388C34.0915 29.388 34.5321 28.9475 34.5321 28.404C34.5321 27.8606 34.0915 27.42 33.5481 27.42C33.0046 27.42 32.5641 27.8606 32.5641 28.404C32.5641 28.9475 33.0046 29.388 33.5481 29.388Z" fill="white"></path>
        <path d="M25.484 29.388C26.0274 29.388 26.468 28.9475 26.468 28.404C26.468 27.8606 26.0274 27.42 25.484 27.42C24.9406 27.42 24.5 27.8606 24.5 28.404C24.5 28.9475 24.9406 29.388 25.484 29.388Z" fill="white"></path>
        <path d="M33.5481 26.0759C32.2761 26.0759 31.2441 27.1199 31.2441 28.3919C31.2441 29.6759 32.2761 30.7079 33.5481 30.7079C34.8201 30.7079 35.8521 29.6639 35.8521 28.3919C35.8641 27.1199 34.8321 26.0759 33.5481 26.0759ZM33.5481 29.3879C33.0081 29.3879 32.5641 28.9439 32.5641 28.4039C32.5641 27.8519 33.0081 27.4199 33.5481 27.4199C34.1001 27.4199 34.5321 27.8639 34.5321 28.4039C34.5321 28.9439 34.1001 29.3879 33.5481 29.3879Z" fill="white"></path>
        <path d="M25.4841 26.0759C24.2121 26.0759 23.1801 27.1199 23.1801 28.3919C23.1801 29.6759 24.2121 30.7079 25.4841 30.7079C26.7561 30.7079 27.7881 29.6639 27.7881 28.3919C27.7881 27.1199 26.7561 26.0759 25.4841 26.0759ZM25.4841 29.3879C24.9441 29.3879 24.5001 28.9439 24.5001 28.4039C24.5001 27.8519 24.9441 27.4199 25.4841 27.4199C26.0241 27.4199 26.4681 27.8639 26.4681 28.4039C26.4681 28.9439 26.0241 29.3879 25.4841 29.3879Z" fill="white"></path>
        <path d="M20.168 10.932L18.596 6.072L18.536 6.096V6H11V8.316H16.868L18.668 13.176L22.544 24.864H36.392L41 10.872L20.168 10.932Z" fill="white"></path>
    </symbol>
    <symbol fill="none" xmlns="http://www.w3.org/2000/svg" viewBox="0 0 512 512" id="error">
        <path d="M256 512C114.841 512 0 397.159 0 256C0 114.841 114.841 0 256 0C397.159 0 512 114.841 512 256C512 397.159 397.159 512 256 512Z" fill="#FF6B6B"></path>
        <path d="M256 36.056C134.722 36.056 36.0559 134.722 36.0559 256C36.0559 377.278 134.722 475.944 256 475.944C377.278 475.944 475.944 377.278 475.944 256C475.944 134.722 377.278 36.056 256 36.056Z" fill="#EE5253"></path>
        <path d="M310.415 174.805L257.791 227.429C256.826 228.394 255.261 228.394 254.296 227.429L201.491 174.624C196.993 170.126 186.885 170.604 179.005 178.483C171.901 185.587 170.022 196.17 174.983 201.131L227.029 253.177C228.414 254.562 228.414 256.806 227.029 258.191L174.983 310.237C170.022 315.198 171.901 325.782 179.005 332.885C186.884 340.765 196.993 341.242 201.491 336.744L253.777 284.458C255.029 283.207 257.058 283.207 258.309 284.458L310.415 336.564C315.708 341.857 325.158 340.09 332.884 332.363C340.64 324.607 342.3 315.435 336.922 310.056L284.894 258.028C283.599 256.733 283.599 254.635 284.894 253.34L336.922 201.313C342.3 195.935 340.64 186.762 332.884 179.006C325.158 171.279 315.708 169.512 310.415 174.805Z" fill="#E4EAF8"></path>
        <path d="M20.605 256C20.605 118.293 129.903 5.653 266.303 0.225C262.883 0.089 259.452 0 256 0C114.841 0 0 114.841 0 256C0 397.159 114.841 512 256 512C259.452 512 262.883 511.911 266.302 511.775C129.903 506.347 20.605 393.707 20.605 256Z" fill="#EE5253"></path>
        <path d="M56.6609 256C56.6609 138.176 149.79 41.705 266.302 36.305C262.887 36.147 259.453 36.056 256 36.056C134.722 36.056 36.0559 134.722 36.0559 256C36.0559 377.278 134.722 475.944 256 475.944C259.454 475.944 262.887 475.854 266.302 475.695C149.79 470.295 56.6609 373.824 56.6609 256Z" fill="#E24951"></path>
        <path d="M195.589 310.236L247.635 258.19C249.019 256.806 249.019 254.561 247.635 253.176L195.589 201.13C190.072 195.613 192.928 182.931 202.704 175.836L201.491 174.623C196.993 170.125 186.885 170.603 179.005 178.482C171.901 185.586 170.022 196.169 174.983 201.13L227.029 253.176C228.413 254.56 228.413 256.805 227.029 258.19L174.983 310.236C170.022 315.197 171.901 325.781 179.005 332.884C186.884 340.764 196.993 341.241 201.491 336.743L202.704 335.53C192.891 328.408 190.094 315.731 195.589 310.236Z" fill="#D8DCE5"></path>
    </symbol>
    <symbol fill="none" xmlns="http://www.w3.org/2000/svg" viewBox="0 0 128 128" id="check">
        <path d="M64 128C99.3462 128 128 99.3462 128 64C128 28.6538 99.3462 0 64 0C28.6538 0 0 28.6538 0 64C0 99.3462 28.6538 128 64 128Z" fill="#659A38"></path>
        <path d="M54.3 97.2L24.8 67.7C24.4 67.3 24.4 66.7 24.8 66.3L33.3 57.8C33.7 57.4 34.3 57.4 34.7 57.8L55 78.1L93.2 39.9C93.6 39.5 94.2 39.5 94.6 39.9L103.1 48.4C103.5 48.8 103.5 49.4 103.1 49.8L55.7 97.2C55.3 97.6 54.7 97.6 54.3 97.2Z" fill="white"></path>
    </symbol>
    <symbol fill="none" xmlns="http://www.w3.org/2000/svg" viewBox="0 0 20 20" id="minus">
        <rect x="0.5" y="0.5" width="19" height="19" rx="4.5" fill="#FFFCF6"></rect>
        <rect width="12" height="2" transform="translate(4 9)" fill="#C7B076"></rect>
        <rect x="0.5" y="0.5" width="19" height="19" rx="4.5" stroke="#C7B076"></rect>
    </symbol>
    <symbol fill="none" xmlns="http://www.w3.org/2000/svg" viewBox="0 0 20 20" id="plus">
        <rect x="0.5" y="0.5" width="19" height="19" rx="4.5" fill="#FFFCF6"></rect>
        <rect width="12" height="2" transform="translate(4 9)" fill="#C7B076"></rect>
        <rect width="12" height="2" transform="translate(9 16) rotate(-90)" fill="#C7B076"></rect>
        <rect x="0.5" y="0.5" width="19" height="19" rx="4.5" stroke="#C7B076"></rect>
    </symbol>
    <symbol fill="none" xmlns="http://www.w3.org/2000/svg" viewBox="0 0 20 20" id="delete">
        <rect x="0.5" y="0.5" width="19" height="19" rx="4.5" fill="#FFFCF6"></rect>
        <rect width="12" height="2" transform="translate(13.5356 14.9499) rotate(-135)" fill="#F65050"></rect>
        <rect width="12" height="2" transform="translate(5.05029 13.5355) rotate(-45)" fill="#F65050"></rect>
        <rect x="0.5" y="0.5" width="19" height="19" rx="4.5" stroke="#F65050"></rect>
    </symbol>
    <symbol fill="none" xmlns="http://www.w3.org/2000/svg" viewBox="0 0 327 347" id="empty-cart">
        <line x1="46.1614" y1="141.781" x2="11.4317" y2="338.743" stroke="#E16C00" stroke-width="9"></line>
        <line x1="13" y1="334.5" x2="313" y2="334.5" stroke="#E16C00" stroke-width="9"></line>
        <line x1="315.298" y1="338.743" x2="280.568" y2="141.781" stroke="#E16C00" stroke-width="9"></line>
        <line x1="42" y1="143.5" x2="285" y2="143.5" stroke="#E16C00" stroke-width="9"></line>
        <mask id="path-5-inside-1" fill="white">
            <path d="M256 143.5C256 125.575 253.607 107.825 248.959 91.2637C244.31 74.7028 237.497 59.6551 228.907 46.9799C220.318 34.3047 210.121 24.2502 198.898 17.3904C187.676 10.5307 175.647 7 163.5 7C151.353 7 139.324 10.5307 128.102 17.3904C116.879 24.2502 106.682 34.3047 98.0926 46.9799C89.5032 59.6551 82.6897 74.7028 78.0411 91.2637C73.3926 107.825 71 125.575 71 143.5L163.5 143.5H256Z"></path>
        </mask>
        <path d="M256 143.5C256 125.575 253.607 107.825 248.959 91.2637C244.31 74.7028 237.497 59.6551 228.907 46.9799C220.318 34.3047 210.121 24.2502 198.898 17.3904C187.676 10.5307 175.647 7 163.5 7C151.353 7 139.324 10.5307 128.102 17.3904C116.879 24.2502 106.682 34.3047 98.0926 46.9799C89.5032 59.6551 82.6897 74.7028 78.0411 91.2637C73.3926 107.825 71 125.575 71 143.5L163.5 143.5H256Z" stroke="#E16C00" stroke-width="10" mask="url(#path-5-inside-1)"></path>
        <circle cx="114.5" cy="225.5" r="12.5" fill="#E16C00"></circle>
        <circle cx="222.5" cy="225.5" r="12.5" fill="#E16C00"></circle>
        <mask id="path-8-inside-2" fill="white">
            <path d="M214 300C214 294.747 212.707 289.546 210.194 284.693C207.681 279.84 203.998 275.43 199.355 271.716C194.712 268.001 189.2 265.055 183.134 263.045C177.068 261.035 170.566 260 164 260C157.434 260 150.932 261.035 144.866 263.045C138.8 265.055 133.288 268.001 128.645 271.716C124.002 275.43 120.319 279.84 117.806 284.693C115.293 289.546 114 294.747 114 300L119.011 300C119.011 295.274 120.174 290.593 122.435 286.227C124.696 281.86 128.01 277.892 132.188 274.55C136.365 271.208 141.325 268.557 146.783 266.748C152.242 264.94 158.092 264.009 164 264.009C169.908 264.009 175.758 264.94 181.217 266.748C186.675 268.557 191.635 271.208 195.812 274.55C199.99 277.892 203.304 281.86 205.565 286.227C207.826 290.593 208.989 295.274 208.989 300H214Z"></path>
        </mask>
        <path d="M214 300C214 294.747 212.707 289.546 210.194 284.693C207.681 279.84 203.998 275.43 199.355 271.716C194.712 268.001 189.2 265.055 183.134 263.045C177.068 261.035 170.566 260 164 260C157.434 260 150.932 261.035 144.866 263.045C138.8 265.055 133.288 268.001 128.645 271.716C124.002 275.43 120.319 279.84 117.806 284.693C115.293 289.546 114 294.747 114 300L119.011 300C119.011 295.274 120.174 290.593 122.435 286.227C124.696 281.86 128.01 277.892 132.188 274.55C136.365 271.208 141.325 268.557 146.783 266.748C152.242 264.94 158.092 264.009 164 264.009C169.908 264.009 175.758 264.94 181.217 266.748C186.675 268.557 191.635 271.208 195.812 274.55C199.99 277.892 203.304 281.86 205.565 286.227C207.826 290.593 208.989 295.274 208.989 300H214Z" stroke="#E16C00" stroke-width="10" mask="url(#path-8-inside-2)"></path>
    </symbol>
</svg>