<svg width="70" height="70" viewBox="0 0 70 70" fill="none" xmlns="http://www.w3.org/2000/svg">
<path d="M35 69.1797C53.8769 69.1797 69.1797 53.8769 69.1797 35C69.1797 16.1231 53.8769 0.820312 35 0.820312C16.1231 0.820312 0.820312 16.1231 0.820312 35C0.820312 53.8769 16.1231 69.1797 35 69.1797Z" fill="#ECAF7B"/>
<path d="M41.5608 51.5428C42.2492 51.5428 42.8072 50.9847 42.8072 50.2964C42.8072 49.608 42.2492 49.05 41.5608 49.05C40.8725 49.05 40.3144 49.608 40.3144 50.2964C40.3144 50.9847 40.8725 51.5428 41.5608 51.5428Z" fill="white"/>
<path d="M31.3464 51.5428C32.0348 51.5428 32.5928 50.9847 32.5928 50.2964C32.5928 49.608 32.0348 49.05 31.3464 49.05C30.658 49.05 30.1 49.608 30.1 50.2964C30.1 50.9847 30.658 51.5428 31.3464 51.5428Z" fill="white"/>
<path d="M41.5608 47.3476C39.9496 47.3476 38.6424 48.67 38.6424 50.2812C38.6424 51.9076 39.9496 53.2148 41.5608 53.2148C43.172 53.2148 44.4792 51.8924 44.4792 50.2812C44.4944 48.67 43.1872 47.3476 41.5608 47.3476ZM41.5608 51.5428C40.8768 51.5428 40.3144 50.9804 40.3144 50.2964C40.3144 49.5972 40.8768 49.05 41.5608 49.05C42.26 49.05 42.8072 49.6124 42.8072 50.2964C42.8072 50.9804 42.26 51.5428 41.5608 51.5428Z" fill="white"/>
<path d="M31.3464 47.3476C29.7352 47.3476 28.428 48.67 28.428 50.2812C28.428 51.9076 29.7352 53.2148 31.3464 53.2148C32.9576 53.2148 34.2648 51.8924 34.2648 50.2812C34.2648 48.67 32.9576 47.3476 31.3464 47.3476ZM31.3464 51.5428C30.6624 51.5428 30.1 50.9804 30.1 50.2964C30.1 49.5972 30.6624 49.05 31.3464 49.05C32.0304 49.05 32.5928 49.6124 32.5928 50.2964C32.5928 50.9804 32.0304 51.5428 31.3464 51.5428Z" fill="white"/>
<path d="M24.6128 28.1652L22.6216 22.0092L22.5456 22.0396V21.918H13V24.8516H20.4328L22.7128 31.0076L27.6224 45.8124H45.1632L51 28.0892L24.6128 28.1652Z" fill="white"/>
</svg>
