<svg width="70" height="70" viewBox="0 0 70 70" fill="none" xmlns="http://www.w3.org/2000/svg">
<path d="M35 69.65C54.1367 69.65 69.65 54.1367 69.65 35C69.65 15.8633 54.1367 0.350006 35 0.350006C15.8633 0.350006 0.350006 15.8633 0.350006 35C0.350006 54.1367 15.8633 69.65 35 69.65Z" fill="#ECAF7B"/>
<path d="M25.2506 38.8034C25.2574 38.8101 25.2628 38.817 25.2696 38.8237C25.2628 38.8276 25.2574 38.8304 25.2506 38.8345C25.2439 38.8276 25.2384 38.8209 25.2316 38.8141C25.2384 38.8116 25.2439 38.8075 25.2506 38.8034Z" fill="white"/>
<path d="M44.7724 38.8089C44.7657 38.8169 44.7575 38.8265 44.7494 38.8346C44.7414 38.8291 44.7331 38.825 44.7251 38.821C44.7331 38.813 44.7414 38.8034 44.7494 38.7953C44.7575 38.7993 44.7643 38.8048 44.7724 38.8089Z" fill="white"/>
<path d="M46.2662 50.3232H23.7338C22.8264 50.3232 22.0909 49.5876 22.0909 48.6802V32.1788H47.909V48.6802C47.9091 49.5876 47.1734 50.3232 46.2662 50.3232Z" fill="white"/>
<path d="M51.1905 34.5278C51.8759 35.2132 51.3859 36.3847 50.4167 36.3782L35.1214 36.2747L19.776 36.1709C18.8139 36.1643 18.3366 35.0009 19.0169 34.3206L34.2336 19.1037C34.6568 18.6805 35.3432 18.6805 35.7664 19.1037L51.1905 34.5278Z" fill="white"/>
<path d="M37.5655 38.582H32.4345C31.1598 38.582 30.1267 39.6152 30.1267 40.8898V50.3858H39.8732V40.8898C39.8733 39.6152 38.84 38.582 37.5655 38.582Z" fill="#ECAF7B"/>
</svg>
